<svg width="128" height="58" viewBox="0 0 88 18" fill="none" xmlns="http://www.w3.org/2000/svg">
<path d="M20 1C18.89 0.65 17.67 0.5 16.5 0.5C14.55 0.5 12.45 0.9 11 2C9.55 0.9 7.45 0.5 5.5 0.5C3.55 0.5 1.45 0.9 0 2V16.65C0 16.9 0.25 17.15 0.5 17.15C0.6 17.15 0.65 17.1 0.75 17.1C2.1 16.45 4.05 16 5.5 16C7.45 16 9.55 16.4 11 17.5C12.35 16.65 14.8 16 16.5 16C18.15 16 19.85 16.3 21.25 17.05C21.35 17.1 21.4 17.1 21.5 17.1C21.75 17.1 22 16.85 22 16.6V2C21.4 1.55 20.75 1.25 20 1ZM20 14.5C18.9 14.15 17.7 14 16.5 14C14.8 14 12.35 14.65 11 15.5V4C12.35 3.15 14.8 2.5 16.5 2.5C17.7 2.5 18.9 2.65 20 3V14.5Z" fill="black"/>
<path d="M16.5 6.5C17.38 6.5 18.23 6.59 19 6.76V5.24C18.21 5.09 17.36 5 16.5 5C14.8 5 13.26 5.29 12 5.83V7.49C13.13 6.85 14.7 6.5 16.5 6.5ZM12 8.49V10.15C13.13 9.51 14.7 9.16 16.5 9.16C17.38 9.16 18.23 9.25 19 9.42V7.9C18.21 7.75 17.36 7.66 16.5 7.66C14.8 7.66 13.26 7.96 12 8.49ZM16.5 10.33C14.8 10.33 13.26 10.62 12 11.16V12.82C13.13 12.18 14.7 11.83 16.5 11.83C17.38 11.83 18.23 11.92 19 12.09V10.57C18.21 10.41 17.36 10.33 16.5 10.33Z" fill="black"/>
<path d="M28.4746 13V12.2617L29.4297 12.0977V5.37695L28.4746 5.21289V4.46875H32.1543C33.0449 4.46875 33.7402 4.66211 34.2402 5.04883C34.7441 5.43164 34.9961 6.00781 34.9961 6.77734C34.9961 7.15625 34.875 7.49609 34.6328 7.79688C34.3945 8.09375 34.0781 8.31445 33.6836 8.45898C34.1953 8.56836 34.5996 8.82031 34.8965 9.21484C35.1934 9.60938 35.3418 10.0684 35.3418 10.5918C35.3418 11.373 35.0879 11.9707 34.5801 12.3848C34.0723 12.7949 33.3848 13 32.5176 13H28.4746ZM30.584 8.0957H32.4531C32.8672 8.0957 33.2012 7.97656 33.4551 7.73828C33.7129 7.49609 33.8418 7.16797 33.8418 6.75391C33.8418 6.29297 33.6973 5.94922 33.4082 5.72266C33.1191 5.49219 32.7012 5.37695 32.1543 5.37695H30.584V8.0957ZM30.584 12.0977H32.5176C33.0449 12.0977 33.4531 11.9688 33.7422 11.7109C34.0352 11.4492 34.1816 11.0801 34.1816 10.6035C34.1816 10.1035 34.0586 9.71094 33.8125 9.42578C33.5703 9.14062 33.1973 8.99805 32.6934 8.99805H30.584V12.0977ZM39.0449 13.123C38.459 13.123 37.9531 12.9863 37.5273 12.7129C37.1055 12.4355 36.7793 12.0547 36.5488 11.5703C36.3184 11.082 36.2031 10.5254 36.2031 9.90039V9.77148C36.2031 9.14648 36.3184 8.5918 36.5488 8.10742C36.7793 7.61914 37.1055 7.23633 37.5273 6.95898C37.9531 6.68164 38.4551 6.54297 39.0332 6.54297C39.6191 6.54297 40.123 6.68164 40.5449 6.95898C40.9707 7.23633 41.2988 7.61719 41.5293 8.10156C41.7598 8.58594 41.875 9.14258 41.875 9.77148V9.90039C41.875 10.5293 41.7598 11.0879 41.5293 11.5762C41.2988 12.0605 40.9727 12.4395 40.5508 12.7129C40.1289 12.9863 39.627 13.123 39.0449 13.123ZM39.0449 12.2207C39.5918 12.2207 40.0078 12.002 40.293 11.5645C40.5781 11.127 40.7207 10.5723 40.7207 9.90039V9.77148C40.7207 9.32617 40.6562 8.92969 40.5273 8.58203C40.4023 8.23047 40.2148 7.95508 39.9648 7.75586C39.7148 7.55273 39.4043 7.45117 39.0332 7.45117C38.666 7.45117 38.3574 7.55273 38.1074 7.75586C37.8574 7.95508 37.6699 8.23047 37.5449 8.58203C37.4199 8.92969 37.3574 9.32617 37.3574 9.77148V9.90039C37.3574 10.5723 37.498 11.127 37.7793 11.5645C38.0645 12.002 38.4863 12.2207 39.0449 12.2207ZM45.8418 13.123C45.2559 13.123 44.75 12.9863 44.3242 12.7129C43.9023 12.4355 43.5762 12.0547 43.3457 11.5703C43.1152 11.082 43 10.5254 43 9.90039V9.77148C43 9.14648 43.1152 8.5918 43.3457 8.10742C43.5762 7.61914 43.9023 7.23633 44.3242 6.95898C44.75 6.68164 45.252 6.54297 45.8301 6.54297C46.416 6.54297 46.9199 6.68164 47.3418 6.95898C47.7676 7.23633 48.0957 7.61719 48.3262 8.10156C48.5566 8.58594 48.6719 9.14258 48.6719 9.77148V9.90039C48.6719 10.5293 48.5566 11.0879 48.3262 11.5762C48.0957 12.0605 47.7695 12.4395 47.3477 12.7129C46.9258 12.9863 46.4238 13.123 45.8418 13.123ZM45.8418 12.2207C46.3887 12.2207 46.8047 12.002 47.0898 11.5645C47.375 11.127 47.5176 10.5723 47.5176 9.90039V9.77148C47.5176 9.32617 47.4531 8.92969 47.3242 8.58203C47.1992 8.23047 47.0117 7.95508 46.7617 7.75586C46.5117 7.55273 46.2012 7.45117 45.8301 7.45117C45.4629 7.45117 45.1543 7.55273 44.9043 7.75586C44.6543 7.95508 44.4668 8.23047 44.3418 8.58203C44.2168 8.92969 44.1543 9.32617 44.1543 9.77148V9.90039C44.1543 10.5723 44.2949 11.127 44.5762 11.5645C44.8613 12.002 45.2832 12.2207 45.8418 12.2207ZM49.3867 13V12.2617L50.3418 12.0977V4.76758L49.3867 4.60352V3.85938H51.4961V9.74805L53.7402 7.51562L53.7695 7.48047L53.0898 7.4043V6.66016H55.8203V7.4043L55.0059 7.55664L53.2246 9.34961L55.4102 12.1211L56.3242 12.2617V13H53.459V12.2617L54.1035 12.1855L54.0859 12.1621L52.4805 10.0938L51.4961 11.084V12.0977L52.4512 12.2617V13H49.3867ZM60.0215 13V12.2617L60.9766 12.0977V5.37695L60.0215 5.21289V4.47461H63.8242C64.7539 4.47461 65.4668 4.68164 65.9629 5.0957C66.459 5.50586 66.707 6.08984 66.707 6.84766C66.707 7.43359 66.5605 7.9082 66.2676 8.27148C65.9746 8.63477 65.5664 8.88477 65.043 9.02148L66.4844 12.1387L67.0762 12.2441V13H65.6523L63.9414 9.15625L62.1309 9.19141V12.0977L63.0859 12.2617V13H60.0215ZM62.1309 8.2832H63.707C64.3516 8.2832 64.8203 8.16016 65.1133 7.91406C65.4062 7.66797 65.5527 7.30859 65.5527 6.83594C65.5527 6.38672 65.4121 6.03125 65.1309 5.76953C64.8496 5.50781 64.4141 5.37695 63.8242 5.37695H62.1309V8.2832ZM70.9902 13.123C70.4043 13.123 69.8945 12.9902 69.4609 12.7246C69.0273 12.4551 68.6914 12.082 68.4531 11.6055C68.2188 11.1289 68.1016 10.5781 68.1016 9.95312V9.69531C68.1016 9.09375 68.2246 8.55664 68.4707 8.08398C68.7207 7.60742 69.0508 7.23242 69.4609 6.95898C69.875 6.68164 70.3262 6.54297 70.8145 6.54297C71.666 6.54297 72.3105 6.80078 72.748 7.31641C73.1895 7.83203 73.4102 8.51953 73.4102 9.37891V10.0996H69.2969L69.2793 10.1289C69.291 10.7383 69.4453 11.2402 69.7422 11.6348C70.0391 12.0254 70.4551 12.2207 70.9902 12.2207C71.3809 12.2207 71.7227 12.166 72.0156 12.0566C72.3125 11.9434 72.5684 11.7891 72.7832 11.5938L73.2344 12.3438C73.0078 12.5625 72.707 12.748 72.332 12.9004C71.9609 13.0488 71.5137 13.123 70.9902 13.123ZM69.332 9.19727H72.2559V9.04492C72.2559 8.5918 72.1348 8.21289 71.8926 7.9082C71.6504 7.60352 71.291 7.45117 70.8145 7.45117C70.4277 7.45117 70.0977 7.61523 69.8242 7.94336C69.5508 8.26758 69.3828 8.67578 69.3203 9.16797L69.332 9.19727ZM76.457 13.123C75.7969 13.123 75.2949 12.9629 74.9512 12.6426C74.6074 12.3184 74.4355 11.8633 74.4355 11.2773C74.4355 10.6758 74.6816 10.1934 75.1738 9.83008C75.666 9.46289 76.3496 9.2793 77.2246 9.2793H78.3555V8.6582C78.3555 8.27539 78.2383 7.97852 78.0039 7.76758C77.7734 7.55664 77.4473 7.45117 77.0254 7.45117C76.7598 7.45117 76.5293 7.48438 76.334 7.55078C76.1387 7.61328 75.9609 7.70117 75.8008 7.81445L75.6777 8.69922H74.7871V7.24609C75.3613 6.77734 76.1133 6.54297 77.043 6.54297C77.8125 6.54297 78.416 6.72656 78.8535 7.09375C79.291 7.46094 79.5098 7.98633 79.5098 8.66992V11.7227C79.5098 11.8047 79.5098 11.8848 79.5098 11.9629C79.5137 12.041 79.5195 12.1191 79.5273 12.1973L80.1426 12.2617V13H78.4844C78.418 12.6797 78.377 12.3887 78.3613 12.127C78.1387 12.4121 77.8594 12.6504 77.5234 12.8418C77.1914 13.0293 76.8359 13.123 76.457 13.123ZM76.627 12.1562C77.0098 12.1562 77.3594 12.0645 77.6758 11.8809C77.9922 11.6973 78.2188 11.4766 78.3555 11.2188V10.0703H77.1836C76.6523 10.0703 76.2539 10.1973 75.9883 10.4512C75.7227 10.7051 75.5898 10.9883 75.5898 11.3008C75.5898 11.8711 75.9355 12.1562 76.627 12.1562ZM83.5293 13.123C83.0137 13.123 82.5703 12.9961 82.1992 12.7422C81.832 12.4844 81.5508 12.127 81.3555 11.6699C81.1602 11.2129 81.0625 10.6797 81.0625 10.0703V9.94727C81.0625 9.26758 81.1602 8.67188 81.3555 8.16016C81.5508 7.64844 81.834 7.25195 82.2051 6.9707C82.5762 6.68555 83.0215 6.54297 83.541 6.54297C83.916 6.54297 84.2461 6.61328 84.5312 6.75391C84.8203 6.89062 85.0664 7.08984 85.2695 7.35156V4.76758L84.3145 4.60352V3.85938H86.4238V12.0977L87.3789 12.2617V13H85.4219L85.3281 12.2441C84.9062 12.8301 84.3066 13.123 83.5293 13.123ZM83.8223 12.1855C84.166 12.1855 84.4551 12.1074 84.6895 11.9512C84.9238 11.7949 85.1172 11.5742 85.2695 11.2891V8.34766C85.1211 8.08203 84.9277 7.87109 84.6895 7.71484C84.4512 7.55859 84.166 7.48047 83.834 7.48047C83.2832 7.48047 82.875 7.70898 82.6094 8.16602C82.3477 8.62305 82.2168 9.2168 82.2168 9.94727V10.0703C82.2168 10.707 82.3477 11.2188 82.6094 11.6055C82.8711 11.9922 83.2754 12.1855 83.8223 12.1855Z" fill="#151516"/>
<line x1="25.5" x2="25.5" y2="18" stroke="black"/>
</svg>
